<?xml version="1.0" standalone="no"?><!DOCTYPE svg PUBLIC "-//W3C//DTD SVG 1.1//EN" "http://www.w3.org/Graphics/SVG/1.1/DTD/svg11.dtd"><svg t="1549071797160" class="icon" style="" viewBox="0 0 1024 1024" version="1.1" xmlns="http://www.w3.org/2000/svg" p-id="2443" xmlns:xlink="http://www.w3.org/1999/xlink" width="256" height="256"><defs><style type="text/css"></style></defs><path d="M916.95945 255.319912c-17.630277 10.578166-38.78661 3.526055-49.364776-14.104222-10.578166-17.630277-3.526055-38.78661 14.104221-49.364776 17.630277-10.578166 38.78661-3.526055 49.364777 14.104222 7.052111 17.630277 3.526055 38.78661-14.104222 49.364776z m-52.890832-91.677442c-17.630277 10.578166-38.78661 3.526055-49.364776-14.104221-10.578166-17.630277-3.526055-38.78661 14.104222-49.364777s38.78661-3.526055 49.364776 14.104222c7.052111 17.630277 0 38.78661-14.104222 49.364776z m-56.416887-95.203497c-17.630277 10.578166-38.78661 3.526055-49.364776-14.104222-10.578166-17.630277-3.526055-38.78661 14.104221-49.364776 17.630277-10.578166 38.78661-3.526055 49.364777 14.104222 10.578166 17.630277 3.526055 38.78661-14.104222 49.364776z m-42.312665 88.151386c-17.630277 10.578166-38.78661 3.526055-49.364777-14.104221-10.578166-17.630277-3.526055-38.78661 14.104222-49.364777 17.630277-10.578166 38.78661-3.526055 49.364776 14.104222 10.578166 17.630277 3.526055 38.78661-14.104221 49.364776z m-42.312666 88.151387c-17.630277 10.578166-38.78661 3.526055-49.364776-14.104222-10.578166-17.630277-3.526055-38.78661 14.104222-49.364776 17.630277-10.578166 38.78661-3.526055 49.364776 14.104221 7.052111 17.630277 3.526055 38.78661-14.104222 49.364777z m-148.094329 200.98516l-172.776717 98.729553-130.464051-229.193604 172.776717-98.729553 31.734499 56.416887 130.464051-38.78661 31.734499 56.416888-95.203497 98.729552 31.734499 56.416887z m193.93305-208.037271c-10.578166-17.630277-3.526055-38.78661 14.104222-49.364776 17.630277-10.578166 38.78661-3.526055 49.364776 14.104221 10.578166 17.630277 3.526055 38.78661-14.104222 49.364777-17.630277 7.052111-38.78661 3.526055-49.364776-14.104222z m-447.809042 232.719659c-105.781663 31.734499-123.411941 77.57322-123.411941 98.729553 0 21.156333 17.630277 35.260554 42.312666 35.260555h550.06465c66.995054 0 123.411941 59.942943 123.41194 126.937996 0 31.734499-14.104222 59.942943-31.734499 84.62533 10.578166 10.578166-45.838721 28.208444-38.78661 42.312666h-631.163925c-21.156333 0-42.312665 17.630277-42.312665 38.78661 0 21.156333 17.630277 31.734499 42.312665 31.734499h645.268147c63.468998 7.052111 52.890832 91.677442 0 91.677442h-645.268147c-66.995054 0-123.411941-56.416887-123.411941-123.411941 0-56.416887 38.78661-112.833774 91.677442-126.937996 0-3.526055 0-3.526055-3.526055-7.052111h613.533648c21.156333 0 42.312665-10.578166 42.312665-35.260555s-17.630277-35.260554-42.312665-35.260554H176.487806c0-3.526055-14.104222-7.052111-10.578167-10.578167-42.312665-21.156333-52.890832-70.521109-52.890832-119.885885 0-66.995054 105.781663-165.724606 176.302773-165.724606l31.734499 74.047164z" p-id="2444" fill="#d4237a"></path></svg>